<svg width="38" height="42" viewBox="0 0 38 42" fill="none" xmlns="http://www.w3.org/2000/svg">
<path d="M22.2413 26.8037H0V19.6875H21.9967C23.6547 19.6875 25.0138 19.4414 26.0739 18.9492C27.134 18.457 27.9154 17.7598 28.4183 16.8574C28.9212 15.9551 29.1726 14.8887 29.1726 13.6582C29.1726 12.4551 28.9212 11.3682 28.4183 10.3975C27.9154 9.42676 27.1476 8.6543 26.1147 8.08008C25.0818 7.50586 23.7906 7.21875 22.2413 7.21875H14.6984V42H5.93237V0H22.2413C25.5438 0 28.3707 0.594726 30.7219 1.78418C33.0867 2.95996 34.8943 4.57324 36.1446 6.62402C37.395 8.66113 38.0134 10.9717 37.9998 13.5557C38.0134 16.2627 37.3814 18.6074 36.1039 20.5898C34.8263 22.5723 33.0052 24.1035 30.6404 25.1836C28.2756 26.2637 25.4759 26.8037 22.2413 26.8037ZM23.811 29.5107V36.627H0V29.5107H23.811Z" fill="#F59C1C"/>
</svg>
