<svg width="92" height="88" viewBox="0 0 92 88" fill="none" xmlns="http://www.w3.org/2000/svg">
<rect x="6.5155" y="39.8164" width="76.1184" height="43.3289" fill="#F59C1C"/>
<path d="M5.34363 81.3881L46.0377 57.8933M86.7318 34.3984L46.0377 57.8933M81.4621 85.4867L46.0377 57.8933" stroke="white" stroke-width="4"/>
<path d="M19.1053 52.6982L18.1024 53.8135L19.0673 54.6816L20.0643 53.8506L19.1053 52.6982ZM19.1053 52.6982L20.0653 53.8506L20.0692 53.8467C20.0718 53.8445 20.0755 53.8416 20.08 53.8379C20.0892 53.8302 20.103 53.819 20.12 53.8047C20.154 53.776 20.2038 53.7341 20.2675 53.6797C20.3948 53.5708 20.5797 53.4117 20.8134 53.2061C21.2809 52.7946 21.945 52.1963 22.7411 51.4453C24.3315 49.945 26.4567 47.8239 28.5858 45.3428C30.7108 42.8665 32.8671 40.0009 34.4989 37.0127C36.1217 34.0411 37.2889 30.8322 37.2889 27.7002C37.2889 21.8404 35.4934 16.8724 32.2596 13.3535C29.0164 9.82418 24.4316 7.86936 19.1053 7.86914C13.7834 7.86896 9.18771 9.82168 6.01453 13.3682C2.84659 16.9088 1.21386 21.9044 1.54089 27.7842C1.71249 30.8684 2.90135 34.0413 4.48816 37.002C6.08285 39.9773 8.13314 42.8351 10.1385 45.3096C12.1473 47.7881 14.133 49.9092 15.6151 51.4092C16.3566 52.1596 16.9741 52.7567 17.4081 53.168C17.6252 53.3737 17.7968 53.5337 17.9149 53.6426C17.9739 53.697 18.0201 53.7389 18.0516 53.7676C18.0672 53.7818 18.0793 53.7931 18.0878 53.8008C18.0919 53.8045 18.0951 53.8074 18.0975 53.8096L18.1014 53.8135L19.1053 52.6982Z" fill="#F59C1C" stroke="white" stroke-width="3"/>
<path d="M35.7894 26.3494C35.7894 35.7273 28.4492 43.3297 19.3946 43.3297C10.3401 43.3297 2.99988 35.7273 2.99988 26.3494C2.99988 16.9715 10.3401 9.36914 19.3946 9.36914C28.4492 9.36914 35.7894 16.9715 35.7894 26.3494Z" fill="#F59C1C"/>
<path d="M27.5907 26.3501C27.5907 30.554 24.1828 33.962 19.9789 33.962C15.775 33.962 12.3671 30.554 12.3671 26.3501C12.3671 22.1462 15.775 18.7383 19.9789 18.7383C24.1828 18.7383 27.5907 22.1462 27.5907 26.3501Z" fill="white"/>
</svg>
