<svg width="59" height="98" viewBox="0 0 59 98" fill="none" xmlns="http://www.w3.org/2000/svg">
<path d="M46.2181 7.70694H43.6562V23.1136H46.2181V7.70694Z" fill="#2376D9"/>
<path d="M44.9368 25.6826C41.7696 25.6826 39.1281 27.9317 38.5239 30.9193V36.0798H51.3629V31.0037C50.792 27.9733 48.1314 25.6826 44.9368 25.6826Z" fill="#6CC9FF"/>
<path d="M39.1435 6.71264L33.1516 10.9062L35.4268 17.9781L29.5539 13.6631L23.5608 17.9781L25.9597 10.9062L19.7275 6.71264H27.0384L29.5539 0L31.8315 6.71264H39.1435Z" fill="#F59C1C"/>
<path d="M46.7482 38.5085H38.5239V48.7832H51.3629V38.5085H46.7482ZM43.5358 42.3952V46.213H41.0941V42.3952C41.0941 41.9338 41.3474 41.5342 41.7244 41.3272C41.7684 41.3011 41.8136 41.2785 41.8624 41.263C41.9219 41.2368 41.9825 41.2166 42.0467 41.2035C42.1336 41.1833 42.2216 41.1726 42.3132 41.1726C42.4047 41.1726 42.4927 41.1833 42.5796 41.2035C43.0208 41.3011 43.3741 41.6388 43.4894 42.0717C43.5156 42.1586 43.5299 42.2454 43.5334 42.3382C43.5358 42.3382 43.5358 42.3405 43.5358 42.3405V42.3941V42.3952ZM46.3522 46.2202V42.3952C46.3522 41.7209 46.9004 41.1726 47.5748 41.1726C48.2492 41.1726 48.7974 41.7209 48.7974 42.3952V46.2202H46.3533H46.3522Z" fill="#D31A1A"/>
<path d="M34.1446 38.9306L34.0732 38.531L30.8168 20.5458H28.2526L25.1187 37.7829L24.9082 38.9342L24.6108 40.5684L30.7942 44.7263L30.8168 48.8057H35.9334L34.1446 38.9306Z" fill="#2376D9"/>
<path d="M42.9697 51.4782H25.6826V66.8255H28.2682C28.499 61.3711 31.5556 56.6483 36.0132 54.0888C38.2777 52.7841 40.9038 52.042 43.7023 52.042C45.434 52.042 47.1026 52.3262 48.6571 52.8543C48.7499 52.8852 48.8414 52.9185 48.9342 52.9518C49.4599 53.1385 49.9689 53.3538 50.4637 53.6C50.6683 53.6975 50.8681 53.7998 51.0655 53.908C51.1654 53.9592 51.2653 54.0127 51.3629 54.0698V51.4794H42.9697V51.4782Z" fill="#153A61"/>
<path d="M58.8213 69.3278C58.8284 69.1232 58.8344 68.9175 58.8344 68.7105C58.8344 68.613 58.832 68.5155 58.8296 68.4215C58.8249 68.2396 58.8189 68.06 58.8118 67.8804C58.5192 62.8102 55.5839 58.4489 51.3641 56.1559C50.0784 55.4565 48.6738 54.9487 47.1907 54.6728C45.9836 54.2957 44.6979 54.0935 43.3658 54.0935C41.1976 54.0935 39.1532 54.6287 37.3632 55.579C34.9167 56.873 32.9389 58.933 31.7471 61.4413C31.7115 61.515 31.6782 61.5876 31.6425 61.6613V61.6637C31.0502 62.9732 30.6744 64.398 30.5507 65.8942C30.5245 66.2022 30.5102 66.5114 30.5102 66.8242C30.5079 66.8682 30.5079 66.9111 30.5079 66.9551C30.5079 67.4926 30.5412 68.0255 30.6054 68.5464C30.603 68.5773 30.603 68.6106 30.603 68.6416C30.603 68.8723 30.6137 69.103 30.6363 69.3278C30.6589 69.5871 30.6982 69.8404 30.7469 70.0914C30.9467 71.0595 31.3392 71.9586 31.8839 72.746C32.0219 72.9482 32.1706 73.1456 32.3323 73.3323C33.2695 74.4313 34.5302 75.2436 35.9657 75.6254C36.5604 75.7847 37.1848 75.8692 37.8282 75.8692C39.0996 75.8692 40.2926 75.5409 41.3309 74.9617C41.602 74.813 41.8661 74.6442 42.1146 74.4622C42.3073 74.3183 42.494 74.1672 42.67 74.0067C42.7497 73.9377 42.8259 73.8663 42.9008 73.789C43.6822 72.9184 44.1567 71.7671 44.1567 70.5041C44.1567 70.3935 44.1543 70.2864 44.146 70.1782V70.1758C44.1615 70.0604 44.1686 69.9427 44.1686 69.8226C44.1686 69.6537 44.1532 69.4896 44.1222 69.3278C44.0354 68.8616 43.8249 68.4382 43.5276 68.0933C43.279 67.8043 42.9721 67.5711 42.6201 67.4094C42.2823 67.2536 41.9053 67.1656 41.5081 67.1656C40.2093 67.1656 39.1282 68.0956 38.8975 69.3278H36.8042C36.8577 68.4001 37.1705 67.5414 37.6724 66.8242C38.0138 66.3354 38.4408 65.912 38.9331 65.579C39.7122 65.0486 40.6529 64.7381 41.6674 64.7381C41.8078 64.7381 41.9469 64.7429 42.0825 64.756C42.9198 64.8273 43.6965 65.1092 44.3601 65.5505C44.868 65.8858 45.308 66.3164 45.6565 66.8159C45.6589 66.8183 45.6589 66.8207 45.6589 66.8231H45.6612C46.0811 67.5842 46.3736 68.4298 46.5021 69.3266C46.5176 69.4158 46.5283 69.5086 46.5378 69.6037V69.6085C46.5663 69.8701 46.5818 70.1366 46.5818 70.4053C46.5818 71.402 46.3844 72.3523 46.0264 73.2217C45.1344 74.9284 43.7357 76.3271 42.0266 77.2155C41.9113 77.275 41.7935 77.3332 41.6758 77.3868C40.4638 77.9553 39.1139 78.2728 37.6867 78.2728C37.5357 78.2728 37.387 78.2704 37.2383 78.2621C36.9791 78.249 36.721 78.2264 36.4676 78.1955C35.622 78.0849 34.8121 77.8625 34.0521 77.5426C33.6548 77.3784 33.2731 77.1834 32.9068 76.9681C31.4153 76.0844 30.1879 74.8035 29.3756 73.2705C29.1889 72.8114 29.0247 72.3428 28.8868 71.8635C28.6561 71.0845 28.4848 70.2781 28.3789 69.4527C28.3742 69.4087 28.3682 69.3682 28.3635 69.3242H15.0762C16.8162 70.5076 18.2065 72.1608 19.0735 74.1006C19.6991 75.4993 20.0476 77.0466 20.0548 78.676V78.7248C20.0809 82.5937 23.2243 85.7217 27.098 85.7217C28.0055 85.7217 28.8713 85.5504 29.6682 85.2352C29.8727 85.1329 30.0833 85.0378 30.2985 84.9534C30.3009 84.9534 30.3033 84.9533 30.3033 84.951C31.2108 84.5954 32.1967 84.3979 33.2314 84.3979C33.6441 84.3979 34.0485 84.4288 34.4434 84.4907C34.7276 84.5347 35.0071 84.5906 35.2807 84.6643C35.8159 84.8047 36.3261 84.9997 36.8102 85.2435C36.9791 85.328 37.1456 85.4208 37.3073 85.5147C37.4405 85.5944 37.5714 85.6788 37.6998 85.7633C38.7631 86.4828 39.6444 87.4545 40.2593 88.5892L40.2664 88.5844C41.1762 90.4671 43.103 91.7695 45.3342 91.7695C46.6389 91.7695 47.8401 91.3235 48.7928 90.5754C48.9664 90.4291 49.1389 90.278 49.3078 90.1222C49.3101 90.1222 49.3101 90.1198 49.3125 90.1175C50.6624 88.8948 51.9005 87.5473 53.0042 86.0927C54.5111 84.1172 55.7742 81.9443 56.7506 79.6204C57.494 77.8578 58.0696 76.0107 58.4621 74.0959C58.6334 73.0041 58.7487 71.892 58.8058 70.7645C58.8284 70.2876 58.8391 69.8059 58.8415 69.3242H58.8237L58.8213 69.3278Z" fill="#2376D9"/>
<path d="M51.3628 54.0685C51.2652 54.0126 51.1653 53.9579 51.0654 53.9068C51.1653 53.9603 51.2652 54.0138 51.3628 54.0709V54.0685Z" fill="white"/>
<path d="M23.1588 48.5644V48.8058H23.1147L23.1588 48.5644Z" fill="white"/>
<path d="M24.0889 43.4538L23.1588 42.8329L20.5458 41.0906L20.1867 40.0891L19.6384 38.5549L14.1222 23.1125L7.74022 41.0906L0 46.2285H5.09038L9.76091 46.2261L23.1588 46.2226H23.5846H28.2444L24.0889 43.4538Z" fill="#6CC9FF"/>
<path d="M15.3855 7.70929H12.8843V20.5506H15.3855V7.70929Z" fill="#2376D9"/>
<path d="M9.24113 48.8902H5.13672V51.2701H7.70688V53.9425H5.13672V56.4734H7.70688V59.0436H5.13672V61.6054H7.70688V64.1851H5.13672V66.8243H23.1588V48.889H9.24113V48.8902ZM16.6257 61.7006C14.5729 61.7006 12.9102 60.0379 12.9102 57.9851C12.9102 55.9323 14.5729 54.2696 16.6257 54.2696C18.6785 54.2696 20.3412 55.9323 20.3412 57.9851C20.3412 60.0379 18.6762 61.7006 16.6257 61.7006Z" fill="#D31A1A"/>
<path d="M41.1939 92.9053C39.8178 92.1953 38.6701 91.1046 37.8911 89.769C37.8839 89.7559 37.8756 89.7429 37.8685 89.7286C37.4153 88.9091 36.7612 88.2169 35.9727 87.7174C35.1045 87.1584 34.0721 86.8385 32.9648 86.8385C32.1906 86.8385 31.4532 86.9943 30.7848 87.2797L30.78 87.2666C29.6704 87.7329 28.4513 87.9921 27.1727 87.9921C26.9729 87.9921 26.7731 87.9874 26.5757 87.9719C23.368 87.7697 20.6028 85.9429 19.0912 83.3061C18.3609 82.0276 17.9232 80.5564 17.8721 78.9912C17.8852 78.7914 17.8923 78.5892 17.8923 78.387C17.8923 78.2871 17.8899 78.1896 17.8876 78.0921C17.7437 73.5643 14.3029 69.8702 9.88568 69.329H0.0141602C0.0320003 69.9772 0.0736288 70.6183 0.136664 71.2534C0.23419 72.2905 0.389994 73.3133 0.598128 74.3147C1.61264 79.2243 3.87714 83.682 7.06219 87.3535C7.88759 88.3037 8.77603 89.2029 9.71918 90.0438C11.8719 91.9598 14.316 93.5749 16.9825 94.8118C20.0902 96.2569 23.5036 97.1941 27.1133 97.5152C27.9101 97.5889 28.7177 97.6306 29.5348 97.6413C29.9724 97.646 30.4054 97.6413 30.8395 97.6258C32.7222 97.5663 34.5621 97.3261 36.3378 96.9158C37.7805 96.5875 39.1839 96.1474 40.5374 95.6063C41.8385 95.0889 43.0968 94.4764 44.2981 93.7795C43.186 93.6974 42.1382 93.3929 41.1951 92.9053H41.1939Z" fill="#6CC9FF"/>
</svg>
