<svg width="338" height="150" viewBox="0 0 338 150" fill="none" xmlns="http://www.w3.org/2000/svg">
<path d="M316.578 127V103H322.866V113.272L324.834 112.072L331.65 103H336.018L329.01 111.688L337.986 127H329.922L324.114 116.248L322.866 117.016V127H316.578Z" fill="#357ED8"/>
<path d="M303.359 127.528C300.799 127.528 298.671 127.016 296.975 125.992C295.279 124.936 293.999 123.48 293.135 121.624C292.303 119.768 291.887 117.624 291.887 115.192C291.887 112.664 292.335 110.456 293.231 108.568C294.127 106.648 295.439 105.16 297.167 104.104C298.895 103.016 301.007 102.472 303.503 102.472C304.911 102.472 306.223 102.648 307.439 103C308.655 103.32 309.631 103.656 310.367 104.008C311.103 104.36 311.471 104.536 311.471 104.536L310.655 107.656C310.655 107.656 310.303 107.512 309.599 107.224C308.927 106.904 308.095 106.6 307.103 106.312C306.143 105.992 305.199 105.832 304.271 105.832C302.959 105.832 301.903 106.104 301.103 106.648C300.303 107.192 299.727 108.12 299.375 109.432C299.023 110.744 298.847 112.568 298.847 114.904C298.847 117.272 299.039 119.128 299.423 120.472C299.839 121.816 300.463 122.776 301.295 123.352C302.159 123.896 303.247 124.168 304.559 124.168C305.519 124.168 306.367 124.008 307.103 123.688C307.871 123.368 308.527 123 309.071 122.584C309.615 122.168 310.015 121.8 310.271 121.48C310.559 121.16 310.703 121 310.703 121L312.671 123.112C312.671 123.112 312.511 123.336 312.191 123.784C311.871 124.232 311.343 124.744 310.607 125.32C309.871 125.896 308.911 126.408 307.727 126.856C306.543 127.304 305.087 127.528 303.359 127.528Z" fill="#357ED8"/>
<path d="M270.078 127V103H278.238C280.446 103 282.222 103.32 283.566 103.96C284.942 104.6 285.934 105.416 286.542 106.408C287.15 107.368 287.454 108.36 287.454 109.384C287.454 110.664 287.086 111.72 286.35 112.552C285.614 113.384 284.782 114.04 283.854 114.52C285.198 114.968 286.302 115.656 287.166 116.584C288.062 117.512 288.51 118.664 288.51 120.04C288.51 121.992 287.678 123.64 286.014 124.984C284.35 126.328 281.854 127 278.526 127H270.078ZM276.414 113.464H278.958C279.502 113.464 280.014 113.208 280.494 112.696C281.006 112.152 281.262 111.144 281.262 109.672C281.262 108.2 281.006 107.208 280.494 106.696C279.982 106.152 279.246 105.88 278.286 105.88H276.414V113.464ZM276.414 124.12H278.526C279.742 124.12 280.638 123.816 281.214 123.208C281.79 122.6 282.078 121.48 282.078 119.848C282.078 118.44 281.822 117.48 281.31 116.968C280.798 116.424 280.126 116.152 279.294 116.152H276.414V124.12Z" fill="#357ED8"/>
<path d="M253.579 127.528C251.051 127.528 248.923 127 247.195 125.944C245.499 124.888 244.219 123.432 243.355 121.576C242.491 119.688 242.059 117.496 242.059 115C242.059 112.504 242.491 110.312 243.355 108.424C244.219 106.536 245.499 105.08 247.195 104.056C248.923 103 251.051 102.472 253.579 102.472C256.139 102.472 258.283 103 260.011 104.056C261.739 105.08 263.051 106.536 263.947 108.424C264.843 110.312 265.291 112.504 265.291 115C265.291 117.496 264.843 119.688 263.947 121.576C263.051 123.432 261.739 124.888 260.011 125.944C258.283 127 256.139 127.528 253.579 127.528ZM253.579 124.312C255.371 124.312 256.587 123.592 257.227 122.152C257.899 120.68 258.235 118.296 258.235 115C258.235 111.704 257.883 109.32 257.179 107.848C256.507 106.376 255.307 105.64 253.579 105.64C251.883 105.64 250.699 106.376 250.027 107.848C249.355 109.32 249.019 111.704 249.019 115C249.019 118.296 249.339 120.68 249.979 122.152C250.619 123.592 251.819 124.312 253.579 124.312Z" fill="#357ED8"/>
<path d="M217.156 127V103H223.492V113.224H230.884V103H237.22V127H230.884V116.392H223.492V127H217.156Z" fill="#357ED8"/>
<path d="M191.709 127L196.941 117.16C195.725 116.616 194.701 115.832 193.869 114.808C193.037 113.752 192.621 112.376 192.621 110.68C192.621 108.056 193.421 106.12 195.021 104.872C196.653 103.624 198.733 103 201.261 103H210.813V127H204.429V117.976H202.269L198.285 127H191.709ZM201.789 114.904H204.429V105.928H201.741C201.037 105.928 200.397 106.296 199.821 107.032C199.277 107.768 199.005 108.936 199.005 110.536C199.005 112.04 199.277 113.144 199.821 113.848C200.365 114.552 201.021 114.904 201.789 114.904Z" fill="#357ED8"/>
<path d="M170.937 127V103H177.273V111.928H178.521C181.721 111.928 184.201 112.52 185.961 113.704C187.721 114.888 188.601 116.696 188.601 119.128C188.601 121.56 187.785 123.48 186.153 124.888C184.521 126.296 182.041 127 178.713 127H170.937ZM177.273 124.12H178.569C179.753 124.12 180.617 123.768 181.161 123.064C181.737 122.328 182.025 121.064 182.025 119.272C182.025 117.48 181.721 116.28 181.113 115.672C180.537 115.064 179.673 114.76 178.521 114.76H177.273V124.12Z" fill="#357ED8"/>
<path d="M145.591 127.432C144.695 127.432 144.055 127.368 143.671 127.24C143.319 127.112 143.143 127.048 143.143 127.048L143.527 123.064C143.527 123.064 143.655 123.096 143.911 123.16C144.167 123.224 144.503 123.256 144.919 123.256C145.943 123.256 146.855 122.632 147.655 121.384C148.455 120.104 149.079 117.992 149.527 115.048C150.007 112.104 150.247 108.088 150.247 103H164.599V127H158.263V106.216H153.847C153.815 113.384 153.015 118.712 151.447 122.2C149.911 125.688 147.959 127.432 145.591 127.432Z" fill="#357ED8"/>
<path d="M119.704 127C116.977 127 114.917 126.661 113.526 125.983C112.135 125.249 111.439 124.882 111.439 124.882L112.942 117.766C112.942 117.766 113.554 118.076 114.778 118.697C116.003 119.262 117.645 119.545 119.704 119.545C121.652 119.545 123.377 119.178 124.88 118.443C126.383 117.709 127.83 116.156 129.221 113.784L106.847 71H120.372L135.065 101.669H135.315L145.167 71H152.847L138.404 109.124C135.9 115.563 133.145 120.166 130.139 122.933C127.134 125.644 123.655 127 119.704 127Z" fill="#357ED8"/>
<path d="M71.0005 11.8395H67.0649V35.5074H71.0005V11.8395Z" fill="#357ED8"/>
<path d="M69.0327 39.4539C64.1672 39.4539 60.1093 42.9089 59.1812 47.4985V55.4261H78.9044V47.6282C78.0274 42.9728 73.9402 39.4539 69.0327 39.4539Z" fill="#73CCFF"/>
<path d="M60.1326 10.312L50.9278 16.7543L54.423 27.618L45.4009 20.9894L36.1943 27.618L39.8795 16.7543L30.3057 10.312H41.5367L45.4009 0L48.8998 10.312H60.1326Z" fill="#F59A17"/>
<path d="M71.8154 59.157H59.1812V74.9411H78.9044V59.157H71.8154ZM66.8804 65.1279V70.9928H63.1295V65.1279C63.1295 64.419 63.5186 63.8051 64.0978 63.4871C64.1654 63.4469 64.2348 63.4122 64.3097 63.3885C64.4011 63.3483 64.4943 63.3172 64.5929 63.2971C64.7263 63.2661 64.8615 63.2496 65.0022 63.2496C65.1429 63.2496 65.2781 63.2661 65.4115 63.2971C66.0893 63.447 66.632 63.9658 66.8092 64.6309C66.8494 64.7643 66.8713 64.8976 66.8768 65.0402C66.8804 65.0402 66.8804 65.0438 66.8804 65.0438V65.126V65.1279ZM71.207 71.0037V65.1279C71.207 64.0919 72.0492 63.2496 73.0852 63.2496C74.1211 63.2496 74.9634 64.0919 74.9634 65.1279V71.0037H71.2088H71.207Z" fill="#E62840"/>
<path d="M52.453 59.8055L52.3433 59.1916L47.3408 31.5626H43.4016L38.5873 58.0424L38.2639 59.811L37.8071 62.3214L47.3061 68.7089L47.3408 74.9757H55.2009L52.453 59.8055Z" fill="#357ED8"/>
<path d="M66.0101 79.0813H39.4536V102.658H43.4257C43.7801 94.2789 48.4757 87.0236 55.3236 83.0917C58.8023 81.0874 62.8365 79.9473 67.1356 79.9473C69.7958 79.9473 72.3592 80.384 74.7472 81.1952C74.8897 81.2427 75.0304 81.2939 75.1729 81.345C75.9805 81.6319 76.7625 81.9626 77.5225 82.3408C77.8368 82.4906 78.1437 82.6477 78.447 82.814C78.6005 82.8926 78.754 82.9748 78.9038 83.0625V79.0831H66.0101V79.0813Z" fill="#153A61"/>
<path d="M90.3617 106.502C90.3727 106.188 90.3818 105.872 90.3818 105.554C90.3818 105.404 90.3782 105.254 90.3745 105.11C90.3672 104.83 90.3581 104.554 90.3471 104.278C89.8977 96.4896 85.3885 89.7897 78.906 86.2671C76.9309 85.1928 74.7732 84.4127 72.4948 83.9888C70.6403 83.4096 68.6652 83.099 66.6189 83.099C63.2882 83.099 60.1474 83.9212 57.3977 85.381C53.6394 87.3689 50.601 90.5334 48.7702 94.3867C48.7154 94.4999 48.6643 94.6114 48.6095 94.7247V94.7283C47.6996 96.7399 47.1222 98.9288 46.9322 101.227C46.892 101.7 46.8701 102.175 46.8701 102.656C46.8664 102.724 46.8664 102.789 46.8664 102.857C46.8664 103.683 46.9176 104.501 47.0163 105.302C47.0126 105.349 47.0126 105.4 47.0126 105.448C47.0126 105.802 47.029 106.157 47.0638 106.502C47.0985 106.9 47.1588 107.289 47.2337 107.675C47.5406 109.162 48.1436 110.543 48.9804 111.753C49.1923 112.064 49.4207 112.367 49.6692 112.654C51.1089 114.342 53.0456 115.59 55.2509 116.176C56.1644 116.421 57.1236 116.551 58.1121 116.551C60.0652 116.551 61.8978 116.047 63.4928 115.157C63.9094 114.928 64.315 114.669 64.6968 114.389C64.9928 114.168 65.2797 113.936 65.5501 113.69C65.6725 113.584 65.7894 113.474 65.9045 113.355C67.1049 112.018 67.8339 110.249 67.8339 108.309C67.8339 108.139 67.8303 107.975 67.8175 107.808V107.805C67.8412 107.627 67.8522 107.447 67.8522 107.262C67.8522 107.003 67.8285 106.75 67.781 106.502C67.6476 105.786 67.3242 105.135 66.8674 104.605C66.4856 104.162 66.0142 103.803 65.4734 103.555C64.9545 103.316 64.3753 103.18 63.765 103.18C61.7699 103.18 60.1091 104.609 59.7546 106.502H56.539C56.6212 105.077 57.1017 103.758 57.8727 102.656C58.3971 101.905 59.053 101.255 59.8094 100.743C61.0062 99.9282 62.4514 99.4513 64.0099 99.4513C64.2255 99.4513 64.4392 99.4586 64.6475 99.4787C65.9338 99.5883 67.1269 100.021 68.1464 100.699C68.9265 101.214 69.6025 101.876 70.1379 102.643C70.1415 102.647 70.1415 102.651 70.1415 102.654H70.1452C70.7901 103.823 71.2396 105.123 71.4369 106.5C71.4607 106.637 71.4771 106.78 71.4917 106.926V106.933C71.5356 107.335 71.5593 107.744 71.5593 108.157C71.5593 109.688 71.256 111.148 70.7061 112.484C69.3358 115.106 67.1872 117.254 64.5616 118.619C64.3844 118.71 64.2035 118.8 64.0227 118.882C62.1609 119.756 60.0871 120.243 57.8946 120.243C57.6626 120.243 57.4342 120.24 57.2058 120.227C56.8075 120.207 56.4111 120.172 56.0219 120.125C54.7228 119.955 53.4786 119.613 52.3111 119.122C51.7009 118.869 51.1144 118.57 50.5516 118.239C48.2605 116.882 46.375 114.914 45.1271 112.559C44.8402 111.853 44.5881 111.134 44.3761 110.397C44.0217 109.201 43.7586 107.962 43.596 106.694C43.5887 106.626 43.5795 106.564 43.5722 106.497H23.1602C25.8332 108.314 27.969 110.854 29.301 113.834C30.262 115.983 30.7973 118.36 30.8083 120.863V120.938C30.8485 126.881 35.6774 131.686 41.6282 131.686C43.0223 131.686 44.3524 131.423 45.5765 130.939C45.8908 130.782 46.2142 130.636 46.5449 130.506C46.5485 130.506 46.5522 130.506 46.5522 130.502C47.9462 129.956 49.4609 129.653 51.0504 129.653C51.6844 129.653 52.3056 129.7 52.9122 129.795C53.3489 129.863 53.7783 129.949 54.1985 130.062C55.0207 130.278 55.8045 130.577 56.5481 130.952C56.8075 131.082 57.0633 131.224 57.3118 131.368C57.5164 131.491 57.7174 131.621 57.9148 131.75C59.5482 132.856 60.902 134.348 61.8466 136.091L61.8576 136.084C63.2553 138.976 66.2151 140.977 69.6427 140.977C71.647 140.977 73.4924 140.292 74.9559 139.143C75.2226 138.918 75.4875 138.686 75.747 138.447C75.7506 138.447 75.7506 138.443 75.7543 138.439C77.828 136.561 79.73 134.491 81.4255 132.256C83.7404 129.222 85.6808 125.884 87.1808 122.313C88.3227 119.606 89.207 116.768 89.81 113.827C90.0731 112.149 90.2503 110.441 90.338 108.709C90.3727 107.976 90.3892 107.236 90.3928 106.497H90.3654L90.3617 106.502Z" fill="#357ED8"/>
<path d="M78.9035 83.0606C78.7537 82.9747 78.6003 82.8907 78.4468 82.8121C78.6003 82.8944 78.7537 82.9766 78.9035 83.0643V83.0606Z" fill="white"/>
<path d="M35.5764 74.605V74.9759H35.5088L35.5764 74.605Z" fill="white"/>
<path d="M37.0055 66.7541L35.5768 65.8003L31.5627 63.1237L31.0109 61.5853L30.1686 59.2283L21.6947 35.5056L11.8906 63.1237L0 71.0166H7.81988L14.9948 71.013L35.5768 71.0075H36.2309H43.3893L37.0055 66.7541Z" fill="#73CCFF"/>
<path d="M23.6353 11.843H19.793V31.5699H23.6353V11.843Z" fill="#357ED8"/>
<path d="M14.1963 75.1055H7.89111V78.7614H11.8394V82.8669H7.89111V86.7549H11.8394V90.7032H7.89111V94.6387H11.8394V98.6016H7.89111V102.656H35.5768V75.1036H14.1963V75.1055ZM25.5406 94.7849C22.3871 94.7849 19.8329 92.2306 19.8329 89.0771C19.8329 85.9236 22.3871 83.3693 25.5406 83.3693C28.6942 83.3693 31.2484 85.9236 31.2484 89.0771C31.2484 92.2306 28.6905 94.7849 25.5406 94.7849Z" fill="#E62840"/>
<path d="M63.2826 142.722C61.1687 141.631 59.4055 139.956 58.2088 137.904C58.1978 137.884 58.185 137.864 58.1741 137.842C57.478 136.583 56.4731 135.52 55.2617 134.752C53.928 133.893 52.3421 133.402 50.6411 133.402C49.4516 133.402 48.3188 133.641 47.292 134.08L47.2847 134.06C45.5801 134.776 43.7073 135.174 41.7432 135.174C41.4363 135.174 41.1293 135.167 40.826 135.143C35.8984 134.833 31.6504 132.026 29.3282 127.976C28.2064 126.011 27.534 123.751 27.4555 121.347C27.4756 121.04 27.4865 120.729 27.4865 120.419C27.4865 120.265 27.4829 120.115 27.4792 119.966C27.2582 113.01 21.9724 107.335 15.1867 106.504H0.0219727C0.0493788 107.5 0.113329 108.484 0.210164 109.46C0.359984 111.053 0.599331 112.624 0.919069 114.163C2.47756 121.705 5.95631 128.553 10.8492 134.193C12.1172 135.653 13.482 137.034 14.9309 138.326C18.2379 141.269 21.9925 143.751 26.0888 145.651C30.863 147.871 36.1067 149.31 41.6519 149.804C42.876 149.917 44.1166 149.981 45.3718 149.997C46.0441 150.005 46.7092 149.997 47.3761 149.974C50.2683 149.882 53.0948 149.513 55.8226 148.883C58.0389 148.378 60.1948 147.702 62.274 146.871C64.2729 146.076 66.2059 145.135 68.0512 144.065C66.3429 143.939 64.7333 143.471 63.2844 142.722H63.2826Z" fill="#73CCFF"/>
</svg>
