<svg width="79" height="67" viewBox="0 0 79 67" fill="none" xmlns="http://www.w3.org/2000/svg">
<circle cx="65.5" cy="11.5" r="11.5" fill="#3075C7"/>
<path d="M65.5 26C72.7592 26 78.679 30.8807 78.9863 37H79V56H52V37H52.0137C52.321 30.8807 58.2408 26 65.5 26Z" fill="#3075C7"/>
<circle cx="13.5" cy="11.5" r="11.5" fill="#3075C7"/>
<path d="M13.5 26C20.7592 26 26.679 30.8807 26.9863 37H27V56H0V37H0.0136719C0.321011 30.8807 6.24084 26 13.5 26Z" fill="#3075C7"/>
<path d="M40.502 31C48.5128 31 55.5593 36.4137 55.9805 43.8184C55.9897 43.8389 55.9965 43.8516 55.9971 43.8574C55.9986 43.8813 56.0005 43.9173 56.001 43.9297C56.0017 43.9489 56.0019 43.9649 56.002 43.9688C56.0022 43.9802 56.0029 43.9912 56.0029 43.9971V44.21C56.0032 44.3503 56.0037 44.5556 56.0039 44.8154C56.0043 45.3355 56.0048 46.0783 56.0049 46.9688L56.0029 60.0312C56.0027 60.9219 56.0031 61.665 56.0029 62.1846C56.0029 62.4441 56.002 62.648 56.002 62.7871V63V63.001V65H25.0029L25.002 63.001L27.002 63H25.002V60.0312C25.0015 58.25 25.0003 55.8749 25 53.5C24.9997 51.1252 24.9997 48.7502 25 46.9688C25.0001 46.0783 25.0006 45.3355 25.001 44.8154C25.0012 44.5556 25.0017 44.3503 25.002 44.21V43.9971C25.002 43.9912 25.0027 43.9802 25.0029 43.9688C25.003 43.9649 25.0032 43.9489 25.0039 43.9297C25.0044 43.9173 25.0062 43.8813 25.0078 43.8574C25.0084 43.8516 25.0152 43.8389 25.0244 43.8184C25.4456 36.4139 32.4913 31.0002 40.502 31Z" fill="#3075C7" stroke="white" stroke-width="4"/>
<circle cx="40.5" cy="18.5" r="11.5" fill="#3075C7"/>
</svg>
