<svg width="93" height="68" viewBox="0 0 93 68" fill="none" xmlns="http://www.w3.org/2000/svg">
<path d="M6 10H14V0H22V10H30V0H37V20H30V40H63V20H56V0H62V10H70V0H78V10H86V0H93V20H86V64H93V68H0V64H7V20H0V0H6V10ZM47 45C40.5122 45 41.0083 51.9924 41.0088 52V64H52.9912V52C52.9917 51.9925 53.4878 45 47 45ZM18.5 24C13.6316 24 14.0068 29.5264 14.0068 29.5264V39H22.9932V29.5264C22.9932 29.5264 23.3684 24 18.5 24ZM74.5 24C69.6316 24 70.0068 29.5264 70.0068 29.5264V39H78.9932V29.5264C78.9932 29.5264 79.3684 24 74.5 24Z" fill="#3AA697"/>
</svg>
