<svg width="221" height="98" viewBox="0 0 221 98" fill="none" xmlns="http://www.w3.org/2000/svg">
<path d="M206.077 82.6711V67.0482H210.17V73.7348L211.452 72.9537L215.888 67.0482H218.732L214.17 72.7037L220.013 82.6711H214.764L210.983 75.672L210.17 76.172V82.6711H206.077Z" fill="#2B85F0"/>
<path d="M197.472 83.0148C195.806 83.0148 194.421 82.6815 193.317 82.0149C192.213 81.3275 191.379 80.3797 190.817 79.1716C190.275 77.9634 190.005 76.5678 190.005 74.9846C190.005 73.339 190.296 71.9017 190.88 70.6727C191.463 69.4229 192.317 68.4543 193.442 67.7669C194.567 67.0586 195.941 66.7045 197.566 66.7045C198.483 66.7045 199.337 66.8191 200.128 67.0482C200.92 67.2565 201.555 67.4752 202.034 67.7044C202.513 67.9335 202.753 68.0481 202.753 68.0481L202.222 70.079C202.222 70.079 201.993 69.9853 201.534 69.7978C201.097 69.5895 200.555 69.3916 199.91 69.2042C199.285 68.9959 198.67 68.8917 198.066 68.8917C197.212 68.8917 196.525 69.0688 196.004 69.4229C195.483 69.777 195.108 70.3811 194.879 71.2351C194.65 72.0892 194.535 73.2765 194.535 74.7972C194.535 76.3386 194.66 77.5468 194.91 78.4217C195.181 79.2966 195.587 79.9215 196.129 80.2964C196.691 80.6505 197.399 80.8276 198.254 80.8276C198.878 80.8276 199.43 80.7234 199.91 80.5151C200.409 80.3068 200.837 80.0673 201.191 79.7965C201.545 79.5257 201.805 79.2861 201.972 79.0778C202.159 78.8695 202.253 78.7654 202.253 78.7654L203.534 80.1402C203.534 80.1402 203.43 80.286 203.222 80.5776C203.013 80.8693 202.67 81.2025 202.19 81.5775C201.711 81.9524 201.086 82.2857 200.316 82.5774C199.545 82.869 198.597 83.0148 197.472 83.0148Z" fill="#2B85F0"/>
<path d="M175.808 82.6711V67.0482H181.12C182.557 67.0482 183.713 67.2565 184.588 67.6731C185.484 68.0897 186.13 68.6209 186.525 69.2667C186.921 69.8916 187.119 70.5373 187.119 71.2039C187.119 72.0371 186.879 72.7245 186.4 73.2661C185.921 73.8077 185.38 74.2347 184.776 74.5472C185.65 74.8388 186.369 75.2867 186.931 75.8908C187.515 76.4948 187.806 77.2447 187.806 78.1405C187.806 79.4111 187.265 80.4839 186.182 81.3588C185.098 82.2336 183.474 82.6711 181.307 82.6711H175.808ZM179.932 73.8598H181.588C181.943 73.8598 182.276 73.6931 182.588 73.3598C182.922 73.0057 183.088 72.3496 183.088 71.3914C183.088 70.4332 182.922 69.7874 182.588 69.4541C182.255 69.1 181.776 68.9229 181.151 68.9229H179.932V73.8598ZM179.932 80.7963H181.307C182.099 80.7963 182.682 80.5985 183.057 80.2027C183.432 79.8069 183.619 79.0778 183.619 78.0155C183.619 77.0989 183.453 76.474 183.119 76.1407C182.786 75.7866 182.349 75.6095 181.807 75.6095H179.932V80.7963Z" fill="#2B85F0"/>
<path d="M165.068 83.0148C163.422 83.0148 162.037 82.6711 160.912 81.9837C159.808 81.2963 158.975 80.3485 158.412 79.1403C157.85 77.9113 157.569 76.4844 157.569 74.8597C157.569 73.2349 157.85 71.808 158.412 70.579C158.975 69.35 159.808 68.4022 160.912 67.7356C162.037 67.0482 163.422 66.7045 165.068 66.7045C166.734 66.7045 168.13 67.0482 169.255 67.7356C170.379 68.4022 171.234 69.35 171.817 70.579C172.4 71.808 172.692 73.2349 172.692 74.8597C172.692 76.4844 172.4 77.9113 171.817 79.1403C171.234 80.3485 170.379 81.2963 169.255 81.9837C168.13 82.6711 166.734 83.0148 165.068 83.0148ZM165.068 80.9213C166.234 80.9213 167.026 80.4526 167.442 79.5153C167.88 78.5571 168.099 77.0052 168.099 74.8597C168.099 72.7141 167.869 71.1622 167.411 70.204C166.974 69.2458 166.193 68.7667 165.068 68.7667C163.964 68.7667 163.193 69.2458 162.756 70.204C162.318 71.1622 162.099 72.7141 162.099 74.8597C162.099 77.0052 162.308 78.5571 162.724 79.5153C163.141 80.4526 163.922 80.9213 165.068 80.9213Z" fill="#2B85F0"/>
<path d="M141.358 82.6711V67.0482H145.483V73.7036H150.295V67.0482H154.419V82.6711H150.295V75.7658H145.483V82.6711H141.358Z" fill="#2B85F0"/>
<path d="M124.794 82.6711L128.199 76.2657C127.408 75.9116 126.741 75.4012 126.2 74.7347C125.658 74.0473 125.387 73.1515 125.387 72.0475C125.387 70.3394 125.908 69.0792 126.95 68.2668C128.012 67.4544 129.366 67.0482 131.011 67.0482H137.229V82.6711H133.074V76.7969H131.668L129.074 82.6711H124.794ZM131.355 74.7972H133.074V68.9542H131.324C130.866 68.9542 130.449 69.1937 130.074 69.6728C129.72 70.1519 129.543 70.9123 129.543 71.9538C129.543 72.9328 129.72 73.6515 130.074 74.1097C130.428 74.568 130.855 74.7972 131.355 74.7972Z" fill="#2B85F0"/>
<path d="M111.272 82.6711V67.0482H115.397V72.8599H116.209C118.292 72.8599 119.906 73.2453 121.052 74.016C122.198 74.7867 122.771 75.9637 122.771 77.5468C122.771 79.1299 122.239 80.3797 121.177 81.2963C120.115 82.2128 118.5 82.6711 116.334 82.6711H111.272ZM115.397 80.7963H116.24C117.011 80.7963 117.573 80.5672 117.927 80.1089C118.302 79.6298 118.49 78.807 118.49 77.6405C118.49 76.474 118.292 75.6929 117.896 75.2971C117.521 74.9013 116.959 74.7034 116.209 74.7034H115.397V80.7963Z" fill="#2B85F0"/>
<path d="M94.7731 82.9523C94.1898 82.9523 93.7732 82.9106 93.5233 82.8273C93.2941 82.744 93.1796 82.7023 93.1796 82.7023L93.4295 80.1089C93.4295 80.1089 93.5129 80.1298 93.6795 80.1714C93.8461 80.2131 94.0649 80.2339 94.3357 80.2339C95.0022 80.2339 95.5959 79.8277 96.1167 79.0153C96.6374 78.1821 97.0436 76.8073 97.3353 74.8909C97.6477 72.9745 97.8039 70.3603 97.8039 67.0482H107.146V82.6711H103.022V69.1417H100.147C100.127 73.8077 99.6058 77.276 98.5851 79.5465C97.5852 81.817 96.3146 82.9523 94.7731 82.9523Z" fill="#2B85F0"/>
<path d="M77.9216 82.6711C76.1463 82.6711 74.8058 82.4505 73.9001 82.0093C72.9943 81.5313 72.5414 81.2924 72.5414 81.2924L73.5196 76.6599C73.5196 76.6599 73.9182 76.8621 74.7152 77.2665C75.5123 77.6342 76.5811 77.818 77.9216 77.818C79.1896 77.818 80.3127 77.579 81.2909 77.1011C82.2691 76.6231 83.2111 75.612 84.1168 74.0679L69.5525 46.2177H78.3563L87.921 66.1816H88.084L94.4967 46.2177H99.4964L90.0947 71.0347C88.4644 75.226 86.671 78.2224 84.7146 80.0239C82.7582 81.7887 80.4939 82.6711 77.9216 82.6711Z" fill="#2B85F0"/>
<path d="M46.2178 7.70694H43.656V23.1136H46.2178V7.70694Z" fill="#2B85F0"/>
<path d="M44.937 25.6826C41.7698 25.6826 39.1282 27.9317 38.524 30.9193V36.0798H51.363V31.0037C50.7921 27.9733 48.1315 25.6826 44.937 25.6826Z" fill="#6CC9FF"/>
<path d="M39.1435 6.71264L33.1516 10.9062L35.4268 17.9781L29.5539 13.6631L23.5608 17.9781L25.9597 10.9062L19.7275 6.71264H27.0384L29.5539 0L31.8315 6.71264H39.1435Z" fill="#F59C1C"/>
<path d="M46.7483 38.5085H38.524V48.7832H51.363V38.5085H46.7483ZM43.5359 42.3953V46.213H41.0942V42.3953C41.0942 41.9338 41.3475 41.5342 41.7246 41.3272C41.7686 41.3011 41.8138 41.2785 41.8625 41.263C41.922 41.2368 41.9826 41.2166 42.0469 41.2035C42.1337 41.1833 42.2217 41.1726 42.3133 41.1726C42.4049 41.1726 42.4929 41.1833 42.5797 41.2035C43.0209 41.3011 43.3742 41.6388 43.4895 42.0717C43.5157 42.1586 43.53 42.2454 43.5335 42.3382C43.5359 42.3382 43.5359 42.3405 43.5359 42.3405V42.3941V42.3953ZM46.3523 46.2202V42.3953C46.3523 41.7209 46.9006 41.1726 47.5749 41.1726C48.2493 41.1726 48.7976 41.7209 48.7976 42.3953V46.2202H46.3535H46.3523Z" fill="#D31A1A"/>
<path d="M34.1445 38.9306L34.0731 38.531L30.8167 20.5458H28.2525L25.1186 37.7829L24.9081 38.9342L24.6107 40.5683L30.7941 44.7263L30.8167 48.8057H35.9332L34.1445 38.9306Z" fill="#2B85F0"/>
<path d="M42.9697 51.4782H25.6826V66.8255H28.2682C28.499 61.3711 31.5556 56.6483 36.0132 54.0888C38.2777 52.7841 40.9038 52.042 43.7023 52.042C45.434 52.042 47.1026 52.3262 48.6571 52.8543C48.7499 52.8852 48.8414 52.9185 48.9342 52.9518C49.4599 53.1385 49.9689 53.3538 50.4637 53.6C50.6683 53.6975 50.8681 53.7998 51.0655 53.908C51.1654 53.9592 51.2653 54.0127 51.3629 54.0698V51.4794H42.9697V51.4782Z" fill="#153A61"/>
<path d="M58.821 69.3278C58.8282 69.1232 58.8341 68.9175 58.8341 68.7105C58.8341 68.613 58.8317 68.5155 58.8294 68.4215C58.8246 68.2396 58.8187 68.06 58.8115 67.8804C58.5189 62.8102 55.5837 58.4489 51.3639 56.1559C50.0782 55.4565 48.6736 54.9487 47.1905 54.6728C45.9833 54.2957 44.6976 54.0935 43.3656 54.0935C41.1974 54.0935 39.1529 54.6287 37.363 55.579C34.9165 56.873 32.9386 58.933 31.7469 61.4413C31.7112 61.515 31.6779 61.5876 31.6422 61.6613V61.6637C31.0499 62.9732 30.6741 64.398 30.5504 65.8942C30.5243 66.2022 30.51 66.5114 30.51 66.8242C30.5076 66.8682 30.5076 66.9111 30.5076 66.9551C30.5076 67.4926 30.5409 68.0255 30.6051 68.5464C30.6028 68.5773 30.6028 68.6106 30.6028 68.6416C30.6028 68.8723 30.6135 69.103 30.6361 69.3278C30.6587 69.5871 30.6979 69.8404 30.7467 70.0914C30.9465 71.0595 31.339 71.9586 31.8837 72.746C32.0216 72.9482 32.1703 73.1456 32.3321 73.3323C33.2693 74.4313 34.53 75.2436 35.9655 75.6254C36.5602 75.7847 37.1846 75.8692 37.828 75.8692C39.0994 75.8692 40.2923 75.5409 41.3306 74.9617C41.6018 74.813 41.8658 74.6442 42.1144 74.4622C42.3071 74.3183 42.4938 74.1672 42.6698 74.0067C42.7495 73.9377 42.8256 73.8663 42.9005 73.789C43.6819 72.9184 44.1565 71.7671 44.1565 70.5041C44.1565 70.3935 44.1541 70.2864 44.1458 70.1782V70.1758C44.1612 70.0604 44.1684 69.9427 44.1684 69.8226C44.1684 69.6537 44.1529 69.4896 44.122 69.3278C44.0352 68.8616 43.8247 68.4382 43.5273 68.0933C43.2787 67.8043 42.9719 67.5711 42.6199 67.4094C42.2821 67.2536 41.9051 67.1656 41.5078 67.1656C40.2091 67.1656 39.1279 68.0956 38.8972 69.3278H36.804C36.8575 68.4001 37.1703 67.5414 37.6722 66.8242C38.0135 66.3354 38.4405 65.912 38.9329 65.579C39.7119 65.0486 40.6527 64.7381 41.6672 64.7381C41.8075 64.7381 41.9467 64.7429 42.0823 64.756C42.9196 64.8273 43.6962 65.1092 44.3599 65.5505C44.8677 65.8858 45.3078 66.3164 45.6562 66.8159C45.6586 66.8183 45.6586 66.8207 45.6586 66.8231H45.661C46.0808 67.5842 46.3734 68.4298 46.5019 69.3266C46.5173 69.4158 46.528 69.5086 46.5375 69.6037V69.6085C46.5661 69.8701 46.5815 70.1366 46.5815 70.4053C46.5815 71.402 46.3841 72.3523 46.0261 73.2217C45.1341 74.9284 43.7355 76.3271 42.0264 77.2155C41.911 77.275 41.7933 77.3333 41.6755 77.3868C40.4636 77.9553 39.1137 78.2728 37.6865 78.2728C37.5354 78.2728 37.3868 78.2704 37.2381 78.2621C36.9788 78.249 36.7207 78.2264 36.4674 78.1955C35.6218 78.0849 34.8118 77.8625 34.0518 77.5426C33.6546 77.3784 33.2728 77.1834 32.9065 76.9681C31.4151 76.0844 30.1877 74.8035 29.3754 73.2705C29.1886 72.8114 29.0245 72.3428 28.8865 71.8635C28.6558 71.0845 28.4845 70.2781 28.3787 69.4527C28.3739 69.4087 28.368 69.3682 28.3632 69.3242H15.0759C16.8159 70.5076 18.2063 72.1608 19.0733 74.1006C19.6989 75.4993 20.0474 77.0466 20.0545 78.676V78.7248C20.0807 82.5937 23.2241 85.7217 27.0978 85.7217C28.0052 85.7217 28.8711 85.5504 29.6679 85.2352C29.8725 85.1329 30.083 85.0378 30.2983 84.9534C30.3007 84.9534 30.303 84.9533 30.303 84.951C31.2105 84.5954 32.1965 84.3979 33.2312 84.3979C33.6439 84.3979 34.0483 84.4289 34.4431 84.4907C34.7274 84.5347 35.0069 84.5906 35.2804 84.6643C35.8156 84.8047 36.3259 84.9997 36.8099 85.2435C36.9788 85.328 37.1453 85.4208 37.3071 85.5147C37.4403 85.5944 37.5711 85.6788 37.6996 85.7633C38.7628 86.4828 39.6441 87.4545 40.259 88.5892L40.2661 88.5844C41.176 90.4671 43.1027 91.7695 45.3339 91.7695C46.6386 91.7695 47.8399 91.3235 48.7925 90.5754C48.9662 90.4291 49.1386 90.278 49.3075 90.1222C49.3099 90.1222 49.3099 90.1198 49.3123 90.1175C50.6622 88.8948 51.9003 87.5473 53.004 86.0927C54.5109 84.1172 55.774 81.9443 56.7504 79.6204C57.4937 77.8578 58.0694 76.0107 58.4619 74.0959C58.6331 73.0041 58.7485 71.892 58.8056 70.7645C58.8282 70.2876 58.8389 69.8059 58.8413 69.3242H58.8234L58.821 69.3278Z" fill="#2B85F0"/>
<path d="M51.3625 54.0685C51.265 54.0126 51.1651 53.9579 51.0652 53.9068C51.1651 53.9603 51.265 54.0138 51.3625 54.0709V54.0685Z" fill="white"/>
<path d="M23.1588 48.5644V48.8058H23.1147L23.1588 48.5644Z" fill="white"/>
<path d="M24.0889 43.4538L23.1588 42.8329L20.5459 41.0906L20.1867 40.0891L19.6384 38.5549L14.1222 23.1125L7.74022 41.0906L0 46.2285H5.09038L9.76091 46.2261L23.1588 46.2226H23.5846H28.2444L24.0889 43.4538Z" fill="#6CC9FF"/>
<path d="M15.3855 7.70929H12.8843V20.5506H15.3855V7.70929Z" fill="#2B85F0"/>
<path d="M9.24113 48.8902H5.13672V51.2701H7.70688V53.9425H5.13672V56.4734H7.70688V59.0436H5.13672V61.6054H7.70688V64.1851H5.13672V66.8243H23.1588V48.889H9.24113V48.8902ZM16.6257 61.7006C14.5729 61.7006 12.9102 60.0379 12.9102 57.9851C12.9102 55.9323 14.5729 54.2696 16.6257 54.2696C18.6785 54.2696 20.3412 55.9323 20.3412 57.9851C20.3412 60.0379 18.6762 61.7006 16.6257 61.7006Z" fill="#D31A1A"/>
<path d="M41.194 92.9053C39.8179 92.1953 38.6702 91.1046 37.8912 89.769C37.8841 89.7559 37.8757 89.7429 37.8686 89.7286C37.4155 88.9091 36.7613 88.2169 35.9728 87.7174C35.1046 87.1584 34.0722 86.8385 32.965 86.8385C32.1907 86.8385 31.4533 86.9943 30.7849 87.2797L30.7801 87.2666C29.6705 87.7329 28.4514 87.9921 27.1729 87.9921C26.9731 87.9921 26.7732 87.9874 26.5758 87.9719C23.3682 87.7697 20.6029 85.9429 19.0913 83.3061C18.361 82.0276 17.9234 80.5564 17.8722 78.9912C17.8853 78.7914 17.8924 78.5892 17.8924 78.387C17.8924 78.2871 17.8901 78.1896 17.8877 78.0921C17.7438 73.5643 14.303 69.8702 9.88581 69.329H0.0142822C0.0321223 69.9772 0.0737509 70.6183 0.136786 71.2534C0.234312 72.2905 0.390116 73.3133 0.59825 74.3147C1.61276 79.2243 3.87726 83.682 7.06231 87.3535C7.88771 88.3037 8.77615 89.2029 9.7193 90.0438C11.872 91.9598 14.3161 93.5749 16.9826 94.8118C20.0903 96.2569 23.5038 97.1941 27.1134 97.5152C27.9103 97.5889 28.7178 97.6306 29.5349 97.6413C29.9726 97.646 30.4055 97.6413 30.8396 97.6258C32.7223 97.5663 34.5622 97.3261 36.3379 96.9158C37.7806 96.5875 39.184 96.1474 40.5375 95.6063C41.8386 95.0889 43.0969 94.4764 44.2982 93.7795C43.1861 93.6974 42.1383 93.3929 41.1952 92.9053H41.194Z" fill="#6CC9FF"/>
</svg>
